# This file uses centimeters as units for non-parametric coordinates.

mtllib curved_LP.mtl
g default
v -2930.638672 700.000000 43.260315
v -2930.638672 592.024414 43.260315
v -3271.300781 700.000000 43.260315
v -3123.949707 493.527679 43.260315
v -3071.087402 546.390015 43.260315
v -3157.889160 426.917389 43.260315
v -3004.477051 580.329590 43.260315
v -3169.583984 353.079193 43.260315
v -3271.300781 353.079224 43.260315
v -3271.300781 426.917450 43.260315
v -3169.583984 119.999969 43.260315
v -3271.300781 119.999969 43.260315
v -3166.883789 13.409998 45.960327
v -3274.000488 13.409994 45.960327
v -3166.883789 110.020142 45.960327
v -3274.000488 110.020226 45.960297
v -3166.883789 98.916573 45.960327
v -3274.000488 98.916573 45.960297
v -3166.883789 93.209961 45.960327
v -3274.000488 93.209969 45.960297
v -3162.683594 119.999954 50.160339
v -3162.683594 110.020134 50.160339
v -3278.200195 120.000038 50.160339
v -3278.200195 110.020218 50.160309
v -3164.383789 98.916573 48.460327
v -3164.383789 93.209961 48.460327
v -3276.500488 98.916573 48.460297
v -3276.500488 93.209969 48.460297
v -3162.883789 13.409998 49.960327
v -3278.000488 13.409994 49.960327
v -3278.000488 -0.000031 49.960327
v -3162.883789 -0.000031 49.960327
v -2589.976562 700.000000 43.260315
v -2737.327637 493.527679 43.260315
v -2790.189941 546.390015 43.260315
v -2703.388184 426.917389 43.260315
v -2856.800293 580.329590 43.260315
v -2691.693359 353.079193 43.260315
v -2589.976562 353.079224 43.260315
v -2589.976562 426.917450 43.260315
v -2691.693359 119.999969 43.260315
v -2589.976562 119.999969 43.260315
v -2694.393555 13.409998 45.960327
v -2587.276855 13.409994 45.960327
v -2694.393555 110.020142 45.960327
v -2587.276855 110.020226 45.960297
v -2694.393555 98.916573 45.960327
v -2587.276855 98.916573 45.960297
v -2694.393555 93.209961 45.960327
v -2587.276855 93.209969 45.960297
v -2698.593750 119.999954 50.160339
v -2698.593750 110.020134 50.160339
v -2583.077148 120.000038 50.160339
v -2583.077148 110.020218 50.160309
v -2696.893555 98.916573 48.460327
v -2696.893555 93.209961 48.460327
v -2584.776855 98.916573 48.460297
v -2584.776855 93.209969 48.460297
v -2698.393555 13.409998 49.960327
v -2583.276855 13.409994 49.960327
v -2583.276855 -0.000031 49.960327
v -2698.393555 -0.000031 49.960327
v -2589.976562 700.000000 -7.401489
v -2930.638672 700.000000 -7.401489
v -3271.300781 700.000000 -7.401489
v -3162.883789 -0.000031 -7.401489
v -3162.883789 13.409998 -7.401489
v -3166.883789 13.409998 -7.401489
v -3166.883789 93.209961 -7.401489
v -3164.383789 93.209961 -7.401489
v -3164.383789 98.916573 -7.401489
v -3166.883789 98.916573 -7.401489
v -3166.883789 110.020142 -7.401489
v -3162.683594 110.020142 -7.401489
v -3162.683594 119.999962 -7.401489
v -3169.583984 119.999969 -7.401489
v -3169.583984 353.079193 -7.401489
v -3157.889160 426.917389 -7.401489
v -3123.949707 493.527679 -7.401489
v -3071.087402 546.390015 -7.401489
v -3004.477051 580.329590 -7.401489
v -2930.638672 592.024414 -7.401489
v -2856.800293 580.329590 -7.401489
v -2790.189941 546.390015 -7.401489
v -2737.327637 493.527679 -7.401489
v -2703.388184 426.917389 -7.401489
v -2691.693359 353.079193 -7.401489
v -2691.693359 119.999969 -7.401489
v -2698.593750 119.999962 -7.401489
v -2698.593750 110.020142 -7.401489
v -2694.393555 110.020142 -7.401489
v -2694.393555 98.916573 -7.401489
v -2696.893555 98.916573 -7.401489
v -2696.893555 93.209961 -7.401489
v -2694.393555 93.209961 -7.401489
v -2694.393555 13.409998 -7.401489
v -2698.393555 13.409998 -7.401489
v -2698.393555 -0.000031 -7.401489
v -3271.300781 426.917450 -7.401489
v -3271.300781 353.079224 -7.401489
v -3271.300781 119.999969 -7.401489
v -3278.200195 120.000046 -7.401489
v -3278.200195 110.020218 -7.401505
v -3274.000488 110.020226 -7.401505
v -3274.000488 98.916573 -7.401505
v -3276.500488 98.916573 -7.401505
v -3276.500488 93.209969 -7.401505
v -3274.000488 93.209969 -7.401505
v -3274.000488 13.409994 -7.401489
v -3278.000488 13.409994 -7.401489
v -3278.000488 -0.000031 -7.401489
v -2589.976562 426.917450 -7.401489
v -2589.976562 353.079224 -7.401489
v -2589.976562 119.999969 -7.401489
v -2583.077148 120.000046 -7.401489
v -2583.077148 110.020218 -7.401505
v -2587.276855 110.020226 -7.401505
v -2587.276855 98.916573 -7.401505
v -2584.776855 98.916573 -7.401505
v -2584.776855 93.209969 -7.401505
v -2587.276855 93.209969 -7.401505
v -2587.276855 13.409994 -7.401489
v -2583.276855 13.409994 -7.401489
v -2583.276855 -0.000031 -7.401489
vt 0.152420 0.019118
vt 0.003688 0.019114
vt 0.003688 0.001788
vt 0.152421 0.001792
vt 0.500951 0.994384
vt 0.128638 0.994352
vt 0.128642 0.938984
vt 0.500956 0.939017
vt 0.434353 0.013970
vt 0.434346 0.027357
vt 0.377081 0.027329
vt 0.377088 0.013941
vt 0.434197 0.386517
vt 0.434176 0.461146
vt 0.383599 0.461135
vt 0.383620 0.386499
vt 0.434167 0.535774
vt 0.383590 0.535772
vt 0.434170 0.610402
vt 0.383593 0.610409
vt 0.434185 0.685031
vt 0.383609 0.685045
vt 0.434213 0.759659
vt 0.383637 0.759683
vt 0.158863 0.579342
vt 0.012333 0.579348
vt 0.012333 0.483945
vt 0.143752 0.483945
vt 0.202716 0.665400
vt 0.012354 0.932181
vt 0.452503 0.932140
vt 0.357083 0.777535
vt 0.452481 0.792632
vt 0.271019 0.733692
vt 0.434286 0.153832
vt 0.383709 0.153811
vt 0.012340 0.182801
vt 0.143759 0.182804
vt 0.434293 0.136981
vt 0.434289 0.146943
vt 0.376824 0.146919
vt 0.376828 0.136956
vt 0.152675 0.173889
vt 0.003426 0.173886
vt 0.003426 0.160992
vt 0.152675 0.160995
vt 0.434300 0.121704
vt 0.434295 0.132788
vt 0.381023 0.132764
vt 0.381028 0.121679
vt 0.147248 0.155568
vt 0.008852 0.155565
vt 0.008853 0.141219
vt 0.147249 0.141222
vt 0.434303 0.113511
vt 0.434301 0.119208
vt 0.378533 0.119182
vt 0.378536 0.113485
vt 0.150479 0.137992
vt 0.005623 0.137989
vt 0.005623 0.130616
vt 0.150479 0.130619
vt 0.434344 0.031351
vt 0.434305 0.111015
vt 0.381033 0.110990
vt 0.381072 0.031324
vt 0.147249 0.127389
vt 0.008853 0.127386
vt 0.008855 0.024282
vt 0.147252 0.024286
vt 0.752343 0.019021
vt 0.752338 0.001695
vt 0.901070 0.001654
vt 0.901075 0.018980
vt 0.873260 0.994417
vt 0.873265 0.939049
vt 0.453426 0.023312
vt 0.453422 0.009924
vt 0.510687 0.009905
vt 0.510691 0.023292
vt 0.453542 0.457102
vt 0.453528 0.382473
vt 0.504104 0.382461
vt 0.504118 0.457097
vt 0.453546 0.531732
vt 0.504123 0.531732
vt 0.453540 0.606361
vt 0.504116 0.606369
vt 0.453522 0.680989
vt 0.504098 0.681005
vt 0.453492 0.755618
vt 0.504068 0.755643
vt 0.746036 0.579248
vt 0.761122 0.483845
vt 0.892542 0.483811
vt 0.892566 0.579213
vt 0.702207 0.665320
vt 0.892648 0.932043
vt 0.547873 0.777504
vt 0.633925 0.733634
vt 0.453467 0.149787
vt 0.504043 0.149773
vt 0.761044 0.182703
vt 0.892463 0.182669
vt 0.453465 0.142898
vt 0.453462 0.132936
vt 0.510927 0.132919
vt 0.510930 0.142882
vt 0.752126 0.173791
vt 0.752122 0.160897
vt 0.901372 0.160857
vt 0.901375 0.173751
vt 0.453461 0.128743
vt 0.453457 0.117658
vt 0.506729 0.117642
vt 0.506733 0.128727
vt 0.757547 0.155469
vt 0.757544 0.141123
vt 0.895940 0.141086
vt 0.895944 0.155432
vt 0.453457 0.115163
vt 0.453455 0.109466
vt 0.509222 0.109448
vt 0.509224 0.115145
vt 0.754313 0.137894
vt 0.754311 0.130521
vt 0.899167 0.130482
vt 0.899169 0.137855
vt 0.453454 0.106970
vt 0.453428 0.027305
vt 0.506699 0.027287
vt 0.506726 0.106953
vt 0.757540 0.127290
vt 0.757512 0.024187
vt 0.895908 0.024150
vt 0.895936 0.127253
vt 0.918949 0.029926
vt 0.918948 0.012170
vt 0.994905 0.012168
vt 0.994905 0.029925
vt 0.918958 0.604093
vt 0.918956 0.506319
vt 0.986041 0.506318
vt 0.986043 0.604092
vt 0.918964 0.965699
vt 0.986048 0.965698
vt 0.918951 0.197684
vt 0.986036 0.197683
vt 0.918951 0.188548
vt 0.918951 0.175333
vt 0.995172 0.175332
vt 0.995172 0.188546
vt 0.918951 0.169772
vt 0.918951 0.155069
vt 0.989610 0.155067
vt 0.989611 0.169771
vt 0.918950 0.151758
vt 0.918950 0.144202
vt 0.992921 0.144200
vt 0.992921 0.151757
vt 0.918950 0.140891
vt 0.918949 0.035223
vt 0.989609 0.035222
vt 0.989610 0.140890
vt 0.918949 0.029926
vt 0.918948 0.012170
vt 0.994905 0.012168
vt 0.994905 0.029925
vt 0.918958 0.604093
vt 0.918956 0.506319
vt 0.986041 0.506318
vt 0.986043 0.604092
vt 0.918964 0.965699
vt 0.986048 0.965698
vt 0.918951 0.197684
vt 0.986036 0.197683
vt 0.918951 0.188548
vt 0.918951 0.175333
vt 0.995172 0.175332
vt 0.995172 0.188546
vt 0.918951 0.169772
vt 0.918951 0.155069
vt 0.989610 0.155067
vt 0.989611 0.169771
vt 0.918950 0.151758
vt 0.918950 0.144202
vt 0.992921 0.144200
vt 0.992921 0.151757
vt 0.918950 0.140891
vt 0.918949 0.035223
vt 0.989609 0.035222
vt 0.989610 0.140890
vn 0.000000 0.000000 1.000000
vn 0.000000 0.000000 1.000000
vn 0.000000 0.000000 1.000000
vn 0.000000 0.000000 1.000000
vn 0.000000 1.000000 0.000000
vn 0.000000 1.000000 0.000000
vn 0.000000 1.000000 0.000000
vn 0.000000 1.000000 0.000000
vn 1.000000 0.000000 0.000000
vn 1.000000 0.000000 0.000000
vn 1.000000 0.000000 0.000000
vn 1.000000 0.000000 0.000000
vn 0.999275 -0.038077 0.000000
vn 0.951057 -0.309017 0.000000
vn 0.951057 -0.309017 0.000000
vn 0.999275 -0.038077 0.000000
vn 0.809018 -0.587784 0.000000
vn 0.809018 -0.587784 0.000000
vn 0.587786 -0.809017 0.000000
vn 0.587786 -0.809017 0.000000
vn 0.309016 -0.951057 0.000000
vn 0.309016 -0.951057 0.000000
vn 0.156434 -0.987689 0.000000
vn 0.156434 -0.987689 0.000000
vn -0.000000 0.000000 1.000000
vn -0.000000 0.000000 1.000000
vn -0.000000 0.000000 1.000000
vn -0.000000 0.000000 1.000000
vn -0.000000 0.000000 1.000000
vn -0.000000 0.000000 1.000000
vn 0.000000 0.000000 1.000000
vn 0.000000 0.000000 1.000000
vn 0.000000 0.000000 1.000000
vn 0.000000 0.000000 1.000000
vn 1.000000 0.000000 0.000000
vn 1.000000 0.000000 0.000000
vn 0.000000 0.000000 1.000000
vn 0.000000 0.000000 1.000000
vn 1.000000 0.000000 0.000000
vn 1.000000 0.000000 0.000000
vn 1.000000 0.000000 0.000000
vn 1.000000 0.000000 0.000000
vn -0.000000 -0.000002 1.000000
vn -0.000000 -0.000002 1.000000
vn -0.000000 -0.000002 1.000000
vn -0.000000 -0.000002 1.000000
vn 1.000000 0.000000 0.000000
vn 1.000000 0.000000 0.000000
vn 1.000000 0.000000 0.000000
vn 1.000000 0.000000 0.000000
vn -0.000000 0.000000 1.000000
vn -0.000000 0.000000 1.000000
vn -0.000000 0.000000 1.000000
vn -0.000000 0.000000 1.000000
vn 1.000000 0.000000 0.000000
vn 1.000000 0.000000 0.000000
vn 1.000000 0.000000 0.000000
vn 1.000000 0.000000 0.000000
vn -0.000000 0.000000 1.000000
vn -0.000000 0.000000 1.000000
vn -0.000000 0.000000 1.000000
vn -0.000000 0.000000 1.000000
vn 1.000000 0.000000 0.000000
vn 1.000000 0.000000 0.000000
vn 1.000000 0.000000 0.000000
vn 1.000000 0.000000 0.000000
vn -0.000000 0.000000 1.000000
vn -0.000000 0.000000 1.000000
vn -0.000000 0.000000 1.000000
vn -0.000000 0.000000 1.000000
vn 0.000001 1.000000 -0.000003
vn 0.000001 1.000000 -0.000003
vn 0.000002 1.000000 0.000000
vn 0.000002 1.000000 0.000000
vn -0.000001 -1.000000 -0.000003
vn -0.000001 -1.000000 0.000000
vn -0.000001 -1.000000 0.000000
vn -0.000001 -1.000000 -0.000003
vn 0.000000 1.000000 -0.000004
vn 0.000000 1.000000 -0.000004
vn -0.000001 -1.000000 -0.000004
vn -0.000001 -1.000000 -0.000004
vn 0.000000 1.000000 0.000000
vn 0.000000 1.000000 0.000000
vn 0.000000 1.000000 0.000001
vn 0.000000 1.000000 0.000001
vn -0.000000 -1.000000 -0.000001
vn 0.000000 -1.000000 0.000000
vn 0.000000 -1.000000 0.000000
vn -0.000000 -1.000000 -0.000001
vn 0.000000 1.000000 0.000002
vn 0.000000 1.000000 0.000002
vn -0.000000 -1.000000 -0.000002
vn -0.000000 -1.000000 -0.000002
vn -0.000000 1.000000 0.000000
vn -0.000000 1.000000 0.000000
vn -0.000000 1.000000 0.000000
vn -0.000000 1.000000 0.000000
vn 0.000000 1.000000 0.000000
vn 0.000000 1.000000 0.000000
vn -0.000000 0.000000 1.000000
vn -0.000000 0.000000 1.000000
vn -0.000000 0.000000 1.000000
vn -0.000000 0.000000 1.000000
vn 0.000000 1.000000 0.000000
vn 0.000000 1.000000 0.000000
vn 0.000000 1.000000 0.000000
vn 0.000000 1.000000 0.000000
vn -1.000000 0.000000 0.000000
vn -1.000000 0.000000 0.000000
vn -1.000000 0.000000 0.000000
vn -1.000000 0.000000 0.000000
vn -0.951057 -0.309015 0.000000
vn -0.999275 -0.038076 0.000000
vn -0.999275 -0.038076 0.000000
vn -0.951057 -0.309015 0.000000
vn -0.809017 -0.587786 0.000000
vn -0.809017 -0.587786 0.000000
vn -0.587785 -0.809017 0.000000
vn -0.587785 -0.809017 0.000000
vn -0.309016 -0.951057 0.000000
vn -0.309016 -0.951057 0.000000
vn -0.156434 -0.987688 0.000000
vn -0.156434 -0.987688 0.000000
vn 0.000000 0.000000 1.000000
vn 0.000000 0.000000 1.000000
vn 0.000000 0.000000 1.000000
vn 0.000000 0.000000 1.000000
vn 0.000000 0.000000 1.000000
vn 0.000000 0.000000 1.000000
vn 0.000000 0.000000 1.000000
vn 0.000000 0.000000 1.000000
vn 0.000000 0.000000 1.000000
vn 0.000000 0.000000 1.000000
vn -1.000000 0.000000 0.000000
vn -1.000000 0.000000 0.000000
vn 0.000000 0.000000 1.000000
vn 0.000000 0.000000 1.000000
vn -1.000000 0.000000 0.000000
vn -1.000000 0.000000 0.000000
vn -1.000000 0.000000 0.000000
vn -1.000000 0.000000 0.000000
vn 0.000000 -0.000002 1.000000
vn 0.000000 -0.000002 1.000000
vn 0.000000 -0.000002 1.000000
vn 0.000000 -0.000002 1.000000
vn -1.000000 0.000000 0.000000
vn -1.000000 0.000000 0.000000
vn -1.000000 0.000000 0.000000
vn -1.000000 0.000000 0.000000
vn 0.000000 0.000000 1.000000
vn 0.000000 0.000000 1.000000
vn 0.000000 0.000000 1.000000
vn 0.000000 0.000000 1.000000
vn -1.000000 0.000000 0.000000
vn -1.000000 0.000000 0.000000
vn -1.000000 0.000000 0.000000
vn -1.000000 0.000000 0.000000
vn 0.000000 0.000000 1.000000
vn 0.000000 0.000000 1.000000
vn 0.000000 0.000000 1.000000
vn 0.000000 0.000000 1.000000
vn -1.000000 0.000000 0.000000
vn -1.000000 0.000000 0.000000
vn -1.000000 0.000000 0.000000
vn -1.000000 0.000000 0.000000
vn 0.000000 0.000000 1.000000
vn 0.000000 0.000000 1.000000
vn 0.000000 0.000000 1.000000
vn 0.000000 0.000000 1.000000
vn -0.000001 1.000000 -0.000003
vn -0.000002 1.000000 0.000000
vn -0.000002 1.000000 0.000000
vn -0.000001 1.000000 -0.000003
vn -0.000000 1.000000 -0.000004
vn -0.000000 1.000000 -0.000004
vn 0.000001 -1.000000 -0.000003
vn 0.000001 -1.000000 -0.000003
vn 0.000001 -1.000000 0.000000
vn 0.000001 -1.000000 0.000000
vn 0.000001 -1.000000 -0.000004
vn 0.000001 -1.000000 -0.000004
vn 0.000000 1.000000 0.000000
vn 0.000000 1.000000 0.000000
vn 0.000000 1.000000 0.000000
vn 0.000000 1.000000 0.000000
vn 0.000000 -1.000000 0.000000
vn 0.000000 -1.000000 0.000000
vn 0.000000 -1.000000 0.000000
vn 0.000000 -1.000000 0.000000
vn 0.000000 1.000000 0.000000
vn 0.000000 1.000000 0.000000
vn 0.000000 -1.000000 0.000000
vn 0.000000 -1.000000 0.000000
vn 0.000000 1.000000 0.000000
vn 0.000000 1.000000 0.000000
vn 0.000000 1.000000 0.000000
vn 0.000000 1.000000 0.000000
vn 0.000000 1.000000 0.000000
vn 0.000000 1.000000 0.000000
vn -1.000000 0.000000 0.000000
vn -1.000000 0.000000 0.000000
vn -1.000000 0.000000 0.000000
vn -1.000000 0.000000 0.000000
vn -1.000000 0.000000 0.000000
vn -1.000000 0.000000 0.000000
vn -1.000000 0.000000 0.000000
vn -1.000000 0.000000 0.000000
vn -1.000000 0.000000 0.000000
vn -1.000000 0.000000 0.000000
vn -1.000000 0.000000 0.000000
vn -1.000000 0.000000 0.000000
vn -1.000000 -0.000027 0.000000
vn -1.000000 -0.000027 0.000000
vn -1.000000 -0.000027 0.000000
vn -1.000000 -0.000027 0.000000
vn -1.000000 0.000000 0.000000
vn -1.000000 0.000000 0.000000
vn -1.000000 0.000000 0.000000
vn -1.000000 0.000000 0.000000
vn -1.000000 0.000000 0.000000
vn -1.000000 0.000000 0.000000
vn -1.000000 0.000000 0.000000
vn -1.000000 0.000000 0.000000
vn -1.000000 0.000000 0.000000
vn -1.000000 0.000000 0.000000
vn -1.000000 0.000000 0.000000
vn -1.000000 0.000000 0.000000
vn 0.000002 -1.000000 0.000000
vn 0.000002 -1.000000 0.000000
vn 0.000002 -1.000000 0.000000
vn 0.000002 -1.000000 0.000000
vn 0.000011 1.000000 0.000000
vn 0.000011 1.000000 0.000000
vn 0.000011 1.000000 0.000000
vn 0.000011 1.000000 0.000000
vn 0.000000 -1.000000 0.000000
vn 0.000000 -1.000000 0.000000
vn 0.000000 -1.000000 0.000000
vn 0.000000 -1.000000 0.000000
vn 0.000000 1.000000 0.000000
vn 0.000000 1.000000 0.000000
vn 0.000000 1.000000 0.000000
vn 0.000000 1.000000 0.000000
vn 0.000000 1.000000 0.000000
vn 0.000000 1.000000 0.000000
vn 0.000000 1.000000 0.000000
vn 0.000000 1.000000 0.000000
vn 1.000000 0.000000 0.000000
vn 1.000000 0.000000 0.000000
vn 1.000000 0.000000 0.000000
vn 1.000000 0.000000 0.000000
vn 1.000000 0.000000 0.000000
vn 1.000000 0.000000 0.000000
vn 1.000000 0.000000 0.000000
vn 1.000000 0.000000 0.000000
vn 1.000000 0.000000 0.000000
vn 1.000000 0.000000 0.000000
vn 1.000000 0.000000 0.000000
vn 1.000000 0.000000 0.000000
vn 1.000000 -0.000013 0.000000
vn 1.000000 -0.000013 0.000000
vn 1.000000 -0.000013 0.000000
vn 1.000000 -0.000013 0.000000
vn 1.000000 0.000000 0.000000
vn 1.000000 0.000000 0.000000
vn 1.000000 0.000000 0.000000
vn 1.000000 0.000000 0.000000
vn 1.000000 0.000000 0.000000
vn 1.000000 0.000000 0.000000
vn 1.000000 0.000000 0.000000
vn 1.000000 0.000000 0.000000
vn 1.000000 -0.000002 0.000000
vn 1.000000 -0.000002 0.000000
vn 1.000000 -0.000002 0.000000
vn 1.000000 -0.000002 0.000000
vn -0.000002 -1.000000 0.000000
vn -0.000002 -1.000000 0.000000
vn -0.000002 -1.000000 0.000000
vn -0.000002 -1.000000 0.000000
vn -0.000011 1.000000 0.000000
vn -0.000011 1.000000 0.000000
vn -0.000011 1.000000 0.000000
vn -0.000011 1.000000 0.000000
vn 0.000000 -1.000000 0.000000
vn 0.000000 -1.000000 0.000000
vn 0.000000 -1.000000 0.000000
vn 0.000000 -1.000000 0.000000
vn 0.000000 1.000000 0.000000
vn 0.000000 1.000000 0.000000
vn 0.000000 1.000000 0.000000
vn 0.000000 1.000000 0.000000
vn 0.000000 1.000000 0.000000
vn 0.000000 1.000000 0.000000
vn 0.000000 1.000000 0.000000
vn 0.000000 1.000000 0.000000
s off
g Curved_LP Trims_LP
usemtl initialShadingGroup
f 29/1/1 30/2/2 31/3/3 32/4/4
f 64/5/5 65/6/6 3/7/7 1/8/8
f 66/9/9 67/10/10 29/11/11 32/12/12
s 1
f 77/13/13 78/14/14 6/15/15 8/16/16
f 78/14/14 79/17/17 4/18/18 6/15/15
f 79/17/17 80/19/19 5/20/20 4/18/18
f 80/19/19 81/21/21 7/22/22 5/20/20
f 81/21/21 82/23/23 2/24/24 7/22/22
s 2
f 6/25/25 10/26/26 9/27/27 8/28/28
f 4/29/29 3/30/30 10/26/26 6/25/25
f 1/31/31 3/30/30 7/32/32 2/33/33
f 7/32/32 3/30/30 4/29/29 5/34/34
s 1
f 76/35/35 77/13/13 8/16/16 11/36/36
s 2
f 8/28/28 9/27/27 12/37/37 11/38/38
s off
f 74/39/39 75/40/40 21/41/41 22/42/42
f 21/43/43 23/44/44 24/45/45 22/46/46
f 72/47/47 73/48/48 15/49/49 17/50/50
f 15/51/51 16/52/52 18/53/53 17/54/54
f 70/55/55 71/56/56 25/57/57 26/58/58
f 25/59/59 27/60/60 28/61/61 26/62/62
f 68/63/63 69/64/64 19/65/65 13/66/66
f 19/67/67 20/68/68 14/69/69 13/70/70
s 3
f 11/36/71 21/41/72 75/40/73 76/35/74
s 4
f 15/49/75 73/48/76 74/39/77 22/42/78
s 3
f 12/37/79 23/44/80 21/43/72 11/38/71
s 4
f 16/52/81 15/51/75 22/46/78 24/45/82
s 5
f 71/56/83 72/47/84 17/50/85 25/57/86
s 6
f 19/65/87 69/64/88 70/55/89 26/58/90
s 5
f 17/54/85 18/53/91 27/60/92 25/59/86
s 6
f 20/68/93 19/67/87 26/62/90 28/61/94
s 7
f 13/70/95 14/69/96 30/2/97 29/1/98
f 67/10/99 68/63/100 13/66/95 29/11/98
s off
f 59/71/101 62/72/102 61/73/103 60/74/104
f 63/75/105 64/5/106 1/8/107 33/76/108
f 97/77/109 98/78/110 62/79/111 59/80/112
s 8
f 86/81/113 87/82/114 38/83/115 36/84/116
f 85/85/117 86/81/113 36/84/116 34/86/118
f 84/87/119 85/85/117 34/86/118 35/88/120
f 83/89/121 84/87/119 35/88/120 37/90/122
f 82/91/123 83/89/121 37/90/122 2/92/124
s 9
f 36/93/125 38/94/126 39/95/127 40/96/128
f 34/97/129 36/93/125 40/96/128 33/98/130
f 1/31/131 2/33/132 37/99/133 33/98/130
f 37/99/133 35/100/134 34/97/129 33/98/130
s 8
f 87/82/114 88/101/135 41/102/136 38/83/115
s 9
f 38/94/126 41/103/137 42/104/138 39/95/127
s off
f 89/105/139 90/106/140 52/107/141 51/108/142
f 51/109/143 52/110/144 54/111/145 53/112/146
f 91/113/147 92/114/148 47/115/149 45/116/150
f 45/117/151 47/118/152 48/119/153 46/120/154
f 93/121/155 94/122/156 56/123/157 55/124/158
f 55/125/159 56/126/160 58/127/161 57/128/162
f 95/129/163 96/130/164 43/131/165 49/132/166
f 49/133/167 43/134/168 44/135/169 50/136/170
s 10
f 41/102/171 88/101/172 89/105/173 51/108/174
f 42/104/175 41/103/171 51/109/174 53/112/176
s 11
f 45/116/177 52/107/178 90/106/179 91/113/180
f 46/120/181 54/111/182 52/110/178 45/117/177
s 12
f 92/114/183 93/121/184 55/124/185 47/115/186
s 13
f 49/132/187 56/123/188 94/122/189 95/129/190
s 12
f 47/118/186 55/125/185 57/128/191 48/119/192
s 13
f 50/136/193 58/127/194 56/126/188 49/133/187
s 14
f 43/134/195 59/71/196 60/74/197 44/135/198
f 96/130/199 97/77/200 59/80/196 43/131/195
s off
f 110/137/201 111/138/202 31/139/203 30/140/204
s 15
f 99/141/205 100/142/206 9/143/207 10/144/208
f 65/145/209 99/141/205 10/144/208 3/146/210
f 100/142/206 101/147/211 12/148/212 9/143/207
s off
f 102/149/213 103/150/214 24/151/215 23/152/216
f 104/153/217 105/154/218 18/155/219 16/156/220
f 106/157/221 107/158/222 28/159/223 27/160/224
f 108/161/225 109/162/226 14/163/227 20/164/228
f 103/150/229 104/153/230 16/156/231 24/151/232
f 101/147/233 102/149/234 23/152/235 12/148/236
f 107/158/237 108/161/238 20/164/239 28/159/240
f 18/155/241 105/154/242 106/157/243 27/160/244
f 14/163/245 109/162/246 110/137/247 30/140/248
f 123/165/249 60/168/250 61/167/251 124/166/252
s 16
f 112/169/253 40/172/254 39/171/255 113/170/256
f 63/173/257 33/174/258 40/172/254 112/169/253
f 113/170/256 39/171/255 42/176/259 114/175/260
s off
f 115/177/261 53/180/262 54/179/263 116/178/264
f 117/181/265 46/184/266 48/183/267 118/182/268
f 119/185/269 57/188/270 58/187/271 120/186/272
f 121/189/273 50/192/274 44/191/275 122/190/276
f 116/178/277 54/179/278 46/184/279 117/181/280
f 114/175/281 42/176/282 53/180/283 115/177/284
f 120/186/285 58/187/286 50/192/287 121/189/288
f 48/183/289 57/188/290 119/185/291 118/182/292
f 44/191/293 60/168/294 123/165/295 122/190/296
